<?xml version="1.0" standalone="no"?>
<!DOCTYPE svg PUBLIC "-//W3C//DTD SVG 20010904//EN"
 "http://www.w3.org/TR/2001/REC-SVG-20010904/DTD/svg10.dtd">
<svg version="1.0" xmlns="http://www.w3.org/2000/svg"
 width="980.000000pt" height="980.000000pt" viewBox="0 0 980.000000 980.000000"
 preserveAspectRatio="xMidYMid meet">

<g transform="translate(0.000000,980.000000) scale(0.100000,-0.100000)"
fill="#000000" stroke="none">
<path d="M5103 6708 l-1711 -1713 -142 -920 c-78 -506 -144 -933 -147 -949 -6
-28 -5 -29 23 -23 16 3 443 69 949 147 l920 141 1713 1712 c941 942 1711 1715
1709 1720 -3 10 -1590 1597 -1597 1597 -3 0 -775 -771 -1717 -1712z m2192 582
l470 -470 -160 -160 -160 -160 -472 472 -473 473 157 157 c87 87 160 158 163
158 3 0 217 -211 475 -470z m-650 -650 l470 -470 -1115 -1115 -1115 -1115
-472 472 -473 473 1112 1112 c612 612 1115 1113 1118 1113 3 0 217 -212 475
-470z m-2259 -2867 c-6 -7 -718 -114 -723 -109 -4 3 62 450 99 665 l10 63 309
-308 c169 -169 307 -310 305 -311z"/>
<path d="M2434 7674 c-165 -27 -342 -99 -499 -202 -38 -25 -120 -95 -180 -156
-184 -185 -274 -341 -347 -608 l-23 -83 0 -2090 0 -2090 23 -85 c69 -256 179
-448 359 -623 173 -170 370 -276 618 -332 l110 -25 2033 0 c1997 0 2036 0
2132 20 257 52 454 156 641 337 200 194 326 430 373 699 14 77 16 238 16 1167
l0 1077 -230 0 -229 0 -3 -1077 -3 -1078 -23 -79 c-25 -85 -67 -174 -115 -246
-108 -159 -273 -277 -464 -332 l-78 -23 -2010 0 -2010 0 -80 23 c-283 82 -495
294 -577 579 l-23 78 0 2010 c0 1921 1 2013 18 2075 83 293 299 512 586 593
76 22 83 22 1154 25 l1077 3 0 229 0 230 -1082 -1 c-861 -1 -1100 -4 -1164
-15z"/>
</g>
</svg>
