<?xml version="1.0" standalone="no"?>
<!DOCTYPE svg PUBLIC "-//W3C//DTD SVG 20010904//EN"
 "http://www.w3.org/TR/2001/REC-SVG-20010904/DTD/svg10.dtd">
<svg version="1.0" xmlns="http://www.w3.org/2000/svg"
 width="512.000000pt" height="512.000000pt" viewBox="0 0 512.000000 512.000000"
 preserveAspectRatio="xMidYMid meet">

<g transform="translate(0.000000,512.000000) scale(0.100000,-0.100000)"
fill="#000000" stroke="none">
<path d="M2520 4823 c-202 -14 -410 -119 -532 -267 -56 -68 -1879 -3111 -1922
-3208 -47 -105 -60 -174 -60 -308 0 -115 3 -133 33 -220 73 -215 191 -350 386
-445 162 -78 15 -72 2075 -80 1301 -5 1872 -3 1937 4 194 23 329 87 458 216
84 84 131 154 172 255 81 202 67 436 -40 636 -17 34 -441 747 -942 1585 l-910
1524 -85 85 c-47 47 -111 100 -143 119 -79 46 -201 88 -279 96 -34 3 -72 7
-83 9 -11 1 -40 1 -65 -1z m167 -951 c63 -33 111 -79 141 -136 l27 -51 3 -669
c3 -751 5 -726 -70 -810 -61 -70 -116 -98 -203 -104 -129 -8 -234 50 -293 162
l-27 51 0 685 0 685 30 54 c36 65 92 114 159 141 67 27 172 23 233 -8z m-35
-2083 c285 -60 439 -372 314 -635 -108 -228 -371 -320 -601 -211 -279 134
-342 501 -124 720 110 110 264 157 411 126z"/>
</g>
</svg>
